<svg width="243" height="203" viewBox="0 0 243 203" fill="none" xmlns="http://www.w3.org/2000/svg">
<path d="M88.2128 193.358C85.2437 201.672 78.2279 200.686 71.0557 197.505C60.9102 193.004 47.4162 172.456 46.0781 162.76C44.85 153.862 48.0313 146.893 54.9591 145.987" fill="white"/>
<path d="M88.2128 193.358C85.2437 201.672 78.2279 200.686 71.0557 197.505C60.9102 193.004 47.4162 172.456 46.0781 162.76C44.85 153.862 48.0313 146.893 54.9591 145.987" stroke="black" stroke-width="4.99999" stroke-linecap="round" stroke-linejoin="round"/>
<path d="M54.5896 73.1057C43.7838 75.4499 49.7786 92.5649 58.878 109.278C62.4112 115.767 52.4161 142.263 58.5752 159.138C62.5819 170.116 77.6337 190.164 88.2379 192.927C106.395 197.658 122.347 194.561 138.295 186.078C143.948 183.071 149.72 178.792 154.053 174.819C168.281 161.774 215.414 145.597 218.421 141.465C226.778 129.985 210.527 122.708 201.59 125.69C197.261 127.135 164.255 134 168.653 130.317C179.456 121.269 193.55 111.68 207.376 103.385C228.065 90.972 202.382 68.8555 183.129 80.677C174.11 86.2148 165.928 89.7784 146.09 102.609C153.478 91.6338 163.495 75.1359 171.878 65.5283C185.7 49.6853 157.345 34.4286 140.852 54.1544C129.62 67.588 112.03 94.0061 87.9046 111.664C88.1125 96.5583 87.1842 66.0331 54.5912 73.1033L54.5896 73.1057Z" fill="white" stroke="black" stroke-width="4.99999" stroke-linecap="round" stroke-linejoin="round"/>
<path d="M144.751 100.139C134.998 112.86 132.902 121.62 131.361 125.496C137.259 117.354 138.539 115.132 145.487 106.921C146.665 105.529 148.269 104.101 150.489 102.682L144.751 100.139Z" fill="black"/>
<path d="M167.01 128.434C159.809 134.473 152.574 143.484 149.315 150.659C153.197 147.303 159.819 141.48 165.619 136.264C167.193 134.85 168.944 133.971 171.948 133.766C169.936 132.343 168.548 130.323 167.01 128.434Z" fill="black"/>
<path d="M87.8606 178.066C100.246 174.422 102.863 172.204 108.533 169.539" stroke="black" stroke-width="4.99999" stroke-linecap="round" stroke-linejoin="round"/>
<path d="M79.9168 169.637C92.2023 162.358 97.4233 157.701 105.165 152.107" stroke="black" stroke-width="4.99999" stroke-linecap="round" stroke-linejoin="round"/>
<path d="M70.7403 159.296C78.4474 153.201 81.5163 149.61 86.0225 145.243" stroke="black" stroke-width="4.99999" stroke-linecap="round" stroke-linejoin="round"/>
</svg>
