<svg width="150" height="131" viewBox="0 0 150 131" fill="none" xmlns="http://www.w3.org/2000/svg">
<path d="M127.17 85.7951C135.312 89.1351 139.231 83.2557 141.648 75.7907C145.065 65.2303 138.757 41.4709 132.447 34.003C126.61 27.1561 119.384 24.8623 114.008 29.4308" fill="white"/>
<path d="M127.17 85.7951C135.312 89.1351 139.231 83.2557 141.648 75.7907C145.065 65.2303 138.757 41.4709 132.447 34.003C126.61 27.1561 119.384 24.8623 114.008 29.4308" stroke="black" stroke-width="4.99983" stroke-linecap="round" stroke-linejoin="round"/>
<path d="M59.3035 11.7594C78.2196 7.65452 110.999 20.7834 121.457 40.8878C126.743 51.2882 131.798 75.7921 126.754 85.5389C118.211 102.219 105.199 112.038 88.244 118.263C82.2381 120.461 75.237 121.897 69.346 122.481C45.3041 125.063 26.359 120.381 26.5146 103.664C6.17894 101.83 6.01893 70.9135 20.9245 68.3725C1.14227 55.7569 13.6959 30.7717 35.8576 36.6577C37.9964 32.8159 39.6654 16.0276 59.3035 11.7594Z" fill="white" stroke="black" stroke-width="4.99983" stroke-linecap="round" stroke-linejoin="round"/>
<path d="M22.0354 70.7888C37.8888 73.1431 43.8598 70.2222 48.0477 69.7086C38.0286 68.4871 35.4578 68.4444 24.912 66.3552C23.1183 65.9978 21.2727 65.4464 19.0847 63.9025L19.1832 71.5143C18.8259 71.6242 20.8945 70.7938 22.0354 70.7888Z" fill="black"/>
<path d="M24.9468 105.937C34.3458 106.312 45.944 105.709 53.1726 102.591C48.0013 102.461 34.654 101.234 26.8636 101.194C26.8635 101.178 26.8806 101.206 24.9468 105.937Z" fill="black"/>
<path d="M116.014 75.3307C105.011 82.129 101.596 82.6024 95.8779 85.0401" stroke="black" stroke-width="4.99983" stroke-linecap="round" stroke-linejoin="round"/>
<path d="M115.035 63.7902C101.387 68.0918 94.4059 68.8782 85.1307 70.9044" stroke="black" stroke-width="4.99983" stroke-linecap="round" stroke-linejoin="round"/>
<path d="M113.453 50.0565C103.748 51.7365 98.9934 51.632 92.8281 52.0605" stroke="black" stroke-width="4.99983" stroke-linecap="round" stroke-linejoin="round"/>
<path d="M34.2338 34.0755C55.3893 35.5323 62.4179 28.054 72.089 22.2799C62.3965 30.2506 60.1147 39.3384 35.6351 39.1545L34.2338 34.0755Z" fill="black"/>
</svg>
