<svg width="199" height="151" viewBox="0 0 199 151" fill="none" xmlns="http://www.w3.org/2000/svg">
<path d="M14.417 63.0061C5.72888 64.407 3.24976 57.7903 2.5933 49.971C1.66769 38.91 13.2135 17.2073 21.0574 11.3701C28.2987 6.02996 35.857 5.43955 40.0533 11.1111" fill="white"/>
<path d="M14.417 63.0061C5.72888 64.407 3.24976 57.7903 2.5933 49.971C1.66769 38.91 13.2135 17.2073 21.0574 11.3701C28.2987 6.02996 35.857 5.43955 40.0533 11.1111" stroke="black" stroke-width="4.99993" stroke-linecap="round" stroke-linejoin="round"/>
<path d="M97.3445 6.34372C79.8573 -1.95576 44.9505 3.3745 30.1934 20.5739C22.6812 29.5 12.1853 52.2125 14.8801 62.8511C19.4069 81.0374 29.8447 93.5584 44.9399 103.477C50.2886 106.983 56.7799 109.974 62.3838 111.882C82.9958 118.606 101.071 107.996 108.373 103.299C121.503 108.432 136.685 116.19 150.604 124.335C171.423 136.518 178.489 103.371 158.869 92.1577C149.684 86.9088 142.623 81.4415 121.843 70.2029C135.022 71.4148 154.304 72.2771 166.752 75.0137C187.291 79.5314 187.051 47.3314 161.826 42.3369C144.647 38.9368 130.912 39.0852 114.514 35.9223C113.305 31.6946 115.498 14.9664 97.3445 6.34372Z" fill="white" stroke="black" stroke-width="4.99993" stroke-linecap="round" stroke-linejoin="round"/>
<path d="M123.333 67.829C107.493 65.3839 98.8078 67.753 94.6165 68.2426C104.629 69.5215 107.199 69.5789 117.733 71.7284C119.524 72.0961 121.545 72.8155 123.859 74.0824L123.333 67.829Z" fill="black"/>
<path d="M109.206 100.941C100.443 97.521 89.0693 95.5052 81.2185 96.0956C90.7857 99.6053 98.3429 102.367 107.534 105.498C107.544 105.474 108.278 103.193 109.201 100.939L109.206 100.941Z" fill="black"/>
<path d="M27.6605 55.3527C36.8292 64.4754 40.0472 65.7131 45.0612 69.3874" stroke="black" stroke-width="4.99993" stroke-linecap="round" stroke-linejoin="round"/>
<path d="M31.2398 44.3378C43.5521 51.6307 50.1711 53.9841 58.7427 58.0667" stroke="black" stroke-width="4.99993" stroke-linecap="round" stroke-linejoin="round"/>
<path d="M35.9031 31.3226C44.9718 35.1658 49.6258 36.1453 55.5322 37.9648" stroke="black" stroke-width="4.99993" stroke-linecap="round" stroke-linejoin="round"/>
<path d="M116.683 33.7768C95.7499 30.384 90.6061 21.5031 82.5014 13.6807C90.1274 23.647 90.2826 33.0158 114.163 38.4041L116.683 33.7768Z" fill="black"/>
</svg>
